<?xml version="1.0" encoding="UTF-8"?>
<svg version="1.1" xmlns="http://www.w3.org/2000/svg" width="96" height="96">
<path d="M0 0 C1.37093536 -0.00337114 2.7418678 -0.00822625 4.11279297 -0.01449585 C6.98108474 -0.02185344 9.84859609 -0.0111996 12.71679688 0.01220703 C16.38583493 0.04069651 20.05304436 0.02428622 23.72201538 -0.00565529 C26.55149002 -0.02375983 29.38053406 -0.01795631 32.21002197 -0.00501633 C34.21798903 -0.00007872 36.2259731 -0.01521214 38.23388672 -0.03067017 C43.19441106 0.03316371 46.98646515 0.09086679 51.45068359 2.33837891 C54.23332606 7.86552322 53.83600436 13.44157141 53.7890625 19.5390625 C53.79243364 20.90999786 53.79728875 22.2809303 53.80355835 23.65185547 C53.81091594 26.52014724 53.8002621 29.38765859 53.77685547 32.25585938 C53.74836599 35.92489743 53.76477628 39.59210686 53.79471779 43.26107788 C53.81282233 46.09055252 53.80701881 48.91959656 53.79407883 51.74908447 C53.78914122 53.75705153 53.80427464 55.7650356 53.81973267 57.77294922 C53.75589879 62.73347356 53.69819571 66.52552765 51.45068359 70.98974609 C45.92353928 73.77238856 40.34749109 73.37506686 34.25 73.328125 C32.87906464 73.33149614 31.5081322 73.33635125 30.13720703 73.34262085 C27.26891526 73.34997844 24.40140391 73.3393246 21.53320312 73.31591797 C17.86416507 73.28742849 14.19695564 73.30383878 10.52798462 73.33378029 C7.69850998 73.35188483 4.86946594 73.34608131 2.03997803 73.33314133 C0.03201097 73.32820372 -1.9759731 73.34333714 -3.98388672 73.35879517 C-8.94441106 73.29496129 -12.73646515 73.23725821 -17.20068359 70.98974609 C-19.98332606 65.46260178 -19.58600436 59.88655359 -19.5390625 53.7890625 C-19.54243364 52.41812714 -19.54728875 51.0471947 -19.55355835 49.67626953 C-19.56091594 46.80797776 -19.5502621 43.94046641 -19.52685547 41.07226562 C-19.49836599 37.40322757 -19.51477628 33.73601814 -19.54471779 30.06704712 C-19.56282233 27.23757248 -19.55701881 24.40852844 -19.54407883 21.57904053 C-19.53914122 19.57107347 -19.55427464 17.5630894 -19.56973267 15.55517578 C-19.50589879 10.59465144 -19.44819571 6.80259735 -17.20068359 2.33837891 C-11.67353928 -0.44426356 -6.09749109 -0.04694186 0 0 Z " fill="#3F51B4" transform="translate(30.875,11.3359375)"/>
<path d="M0 0 C1.09570312 0.00902344 2.19140625 0.01804687 3.3203125 0.02734375 C4.16335937 0.03894531 5.00640625 0.05054687 5.875 0.0625 C5.875 2.7025 5.875 5.3425 5.875 8.0625 C3.565 8.3925 1.255 8.7225 -1.125 9.0625 C-1.455 11.3725 -1.785 13.6825 -2.125 16.0625 C0.515 16.0625 3.155 16.0625 5.875 16.0625 C5.545 18.7025 5.215 21.3425 4.875 24.0625 C2.565 24.0625 0.255 24.0625 -2.125 24.0625 C-2.125 32.6425 -2.125 41.2225 -2.125 50.0625 C-5.425 50.0625 -8.725 50.0625 -12.125 50.0625 C-12.125 41.4825 -12.125 32.9025 -12.125 24.0625 C-14.105 24.0625 -16.085 24.0625 -18.125 24.0625 C-18.125 21.4225 -18.125 18.7825 -18.125 16.0625 C-16.145 16.0625 -14.165 16.0625 -12.125 16.0625 C-12.17140625 15.39863281 -12.2178125 14.73476563 -12.265625 14.05078125 C-12.56291625 6.77776321 -12.56291625 6.77776321 -10.25 3 C-6.75892496 -0.18303901 -4.64604868 -0.04942605 0 0 Z " fill="#FDFDFE" transform="translate(64.125,25.9375)"/>
</svg>
