<?xml version="1.0" encoding="UTF-8"?>
<svg version="1.1" xmlns="http://www.w3.org/2000/svg" width="96" height="96">
<path d="M0 0 C1.02156189 -0.01283524 2.04312378 -0.02567047 3.09564209 -0.03889465 C4.75807953 -0.04997505 4.75807953 -0.04997505 6.45410156 -0.0612793 C7.59123596 -0.06935104 8.72837036 -0.07742279 9.89996338 -0.08573914 C12.31089753 -0.09958902 14.72185137 -0.11030711 17.1328125 -0.11816406 C20.81580936 -0.13536301 24.49790559 -0.17924095 28.18066406 -0.22338867 C30.52180329 -0.23351658 32.86295015 -0.24203237 35.20410156 -0.2487793 C36.85439362 -0.27504143 36.85439362 -0.27504143 38.5380249 -0.30183411 C44.73192605 -0.28431216 48.3891682 0.02329464 53.09472656 4.17700195 C58.67876774 9.82662751 57.76503716 16.9380047 57.84472656 24.48950195 C57.87041761 25.84784476 57.89744167 27.20616299 57.92578125 28.56445312 C57.97790095 31.23102438 58.0161956 33.896706 58.04785156 36.5637207 C58.08701559 39.58261473 58.15740924 42.59695592 58.25097656 45.61450195 C58.68079499 62.2371081 58.68079499 62.2371081 53.62988281 67.78637695 C49.75312997 71.16076329 47.20856334 72.29918012 42.18945312 72.35400391 C41.16789124 72.36683914 40.14632935 72.37967438 39.09381104 72.39289856 C37.4313736 72.40397896 37.4313736 72.40397896 35.73535156 72.4152832 C34.59821716 72.42335495 33.46108276 72.4314267 32.28948975 72.43974304 C29.87855559 72.45359293 27.46760176 72.46431102 25.05664062 72.47216797 C21.37364376 72.48936691 17.69154753 72.53324486 14.00878906 72.57739258 C11.66764984 72.58752048 9.32650297 72.59603628 6.98535156 72.6027832 C5.33505951 72.62904533 5.33505951 72.62904533 3.65142822 72.65583801 C-2.5383668 72.63832769 -6.20910318 72.33960327 -10.90527344 68.17700195 C-15.92819406 62.79168941 -15.56784023 57.10051725 -15.65527344 50.11450195 C-15.69539551 48.39469116 -15.69539551 48.39469116 -15.73632812 46.64013672 C-15.78646659 44.2893264 -15.82715409 41.93829555 -15.85839844 39.5871582 C-15.90181681 36.42847172 -15.97765036 33.2723235 -16.06152344 30.11450195 C-16.09512401 28.28121019 -16.12650414 26.44787589 -16.15527344 24.61450195 C-16.17686523 23.79006592 -16.19845703 22.96562988 -16.22070312 22.11621094 C-16.25297707 16.06422595 -15.64055506 9.24884874 -11.45288086 4.54589844 C-7.53696305 1.21662609 -5.02964993 0.05493891 0 0 Z " fill="#EE5162" transform="translate(26.9052734375,11.822998046875)"/>
<path d="M0 0 C1.02156189 -0.01283524 2.04312378 -0.02567047 3.09564209 -0.03889465 C4.75807953 -0.04997505 4.75807953 -0.04997505 6.45410156 -0.0612793 C7.59123596 -0.06935104 8.72837036 -0.07742279 9.89996338 -0.08573914 C12.31089753 -0.09958902 14.72185137 -0.11030711 17.1328125 -0.11816406 C20.81580936 -0.13536301 24.49790559 -0.17924095 28.18066406 -0.22338867 C30.52180329 -0.23351658 32.86295015 -0.24203237 35.20410156 -0.2487793 C36.85439362 -0.27504143 36.85439362 -0.27504143 38.5380249 -0.30183411 C44.73192605 -0.28431216 48.3891682 0.02329464 53.09472656 4.17700195 C58.67876774 9.82662751 57.76503716 16.9380047 57.84472656 24.48950195 C57.87041761 25.84784476 57.89744167 27.20616299 57.92578125 28.56445312 C57.97790095 31.23102438 58.0161956 33.896706 58.04785156 36.5637207 C58.08701559 39.58261473 58.15740924 42.59695592 58.25097656 45.61450195 C58.68079499 62.2371081 58.68079499 62.2371081 53.62988281 67.78637695 C49.75312997 71.16076329 47.20856334 72.29918012 42.18945312 72.35400391 C41.16789124 72.36683914 40.14632935 72.37967438 39.09381104 72.39289856 C37.4313736 72.40397896 37.4313736 72.40397896 35.73535156 72.4152832 C34.59821716 72.42335495 33.46108276 72.4314267 32.28948975 72.43974304 C29.87855559 72.45359293 27.46760176 72.46431102 25.05664062 72.47216797 C21.37364376 72.48936691 17.69154753 72.53324486 14.00878906 72.57739258 C11.66764984 72.58752048 9.32650297 72.59603628 6.98535156 72.6027832 C5.33505951 72.62904533 5.33505951 72.62904533 3.65142822 72.65583801 C-2.5383668 72.63832769 -6.20910318 72.33960327 -10.90527344 68.17700195 C-15.92819406 62.79168941 -15.56784023 57.10051725 -15.65527344 50.11450195 C-15.69539551 48.39469116 -15.69539551 48.39469116 -15.73632812 46.64013672 C-15.78646659 44.2893264 -15.82715409 41.93829555 -15.85839844 39.5871582 C-15.90181681 36.42847172 -15.97765036 33.2723235 -16.06152344 30.11450195 C-16.09512401 28.28121019 -16.12650414 26.44787589 -16.15527344 24.61450195 C-16.17686523 23.79006592 -16.19845703 22.96562988 -16.22070312 22.11621094 C-16.25297707 16.06422595 -15.64055506 9.24884874 -11.45288086 4.54589844 C-7.53696305 1.21662609 -5.02964993 0.05493891 0 0 Z M-1.76098633 14.39819336 C-5.79116277 20.66315294 -5.27752728 27.29138431 -5.27587891 34.46923828 C-5.28025409 36.60505835 -5.31661817 38.73881221 -5.35449219 40.87426758 C-5.36036121 42.24470329 -5.36433003 43.61514872 -5.36621094 44.9855957 C-5.37442871 46.22108154 -5.38264648 47.45656738 -5.39111328 48.72949219 C-4.65609102 53.94519536 -2.22868704 56.81860888 1.3762207 60.51879883 C4.94266125 62.69421546 7.42814513 62.69400406 11.59082031 62.70825195 C12.30198502 62.71207886 13.01314972 62.71590576 13.74586487 62.71984863 C15.2444094 62.72256073 16.74300184 62.71524863 18.24145508 62.69848633 C20.52240778 62.67709404 22.80020021 62.69829084 25.08105469 62.72387695 C26.54265012 62.72123293 28.0042436 62.71610639 29.46582031 62.70825195 C30.78509521 62.70374023 32.10437012 62.69922852 33.46362305 62.69458008 C39.02279421 61.90217486 41.87519085 59.62945984 45.43652344 55.38793945 C47.39704389 51.59159596 47.61086017 49.06050586 47.62597656 44.80200195 C47.62980347 44.11444824 47.63363037 43.42689453 47.63757324 42.71850586 C47.64028046 41.27301559 47.63300284 39.82747534 47.61621094 38.38208008 C47.59477907 36.18239063 47.6160478 33.98596607 47.64160156 31.78637695 C47.63895807 30.37491149 47.63383263 28.96344803 47.62597656 27.55200195 C47.62146484 26.28098633 47.61695313 25.0099707 47.61230469 23.70043945 C46.80762299 18.22253085 44.49437954 15.35484124 40.31713867 11.83959961 C34.81067077 8.99854753 28.98296062 9.51019226 22.92749023 9.5456543 C20.6655201 9.55197876 18.40878558 9.50500724 16.14746094 9.4543457 C6.30670765 9.27568788 6.30670765 9.27568788 -1.76098633 14.39819336 Z " fill="#C95D80" transform="translate(26.9052734375,11.822998046875)"/>
<path d="M0 0 C1.06462463 -0.00361794 1.06462463 -0.00361794 2.15075684 -0.00730896 C3.64336769 -0.00633448 5.13601649 0.00696379 6.62841797 0.03198242 C8.90067487 0.066322 11.16904165 0.05261874 13.44140625 0.03320312 C14.89845389 0.04010225 16.35549159 0.04977526 17.8125 0.0625 C19.12541016 0.07337646 20.43832031 0.08425293 21.79101562 0.09545898 C27.33147484 0.91298352 30.1947371 3.18600348 33.74804688 7.41796875 C35.70856733 11.21431224 35.92238361 13.74540234 35.9375 18.00390625 C35.9413269 18.69145996 35.94515381 19.37901367 35.94909668 20.08740234 C35.9518039 21.53289261 35.94452628 22.97843286 35.92773438 24.42382812 C35.9063025 26.62351757 35.92757124 28.81994213 35.953125 31.01953125 C35.95048151 32.43099672 35.94535607 33.84246017 35.9375 35.25390625 C35.93298828 36.52492187 35.92847656 37.7959375 35.92382812 39.10546875 C35.11914643 44.58337736 32.80590298 47.45106696 28.62866211 50.96630859 C23.12219421 53.80736067 17.29448405 53.29571594 11.23901367 53.26025391 C8.97704354 53.25392944 6.72030902 53.30090096 4.45898438 53.3515625 C-7.60026309 53.45805845 -7.60026309 53.45805845 -12.00390625 49.83984375 C-17.65229643 43.86233778 -16.93331848 37.16459498 -16.90942383 29.41210938 C-16.9062703 27.26770896 -16.92971574 25.12469815 -16.95507812 22.98046875 C-16.95735212 21.60547048 -16.95805415 20.23046852 -16.95703125 18.85546875 C-16.96001221 17.61361816 -16.96299316 16.37176758 -16.96606445 15.09228516 C-16.38358326 9.67387326 -14.62642961 6.70833152 -10.88085938 2.79321289 C-6.92950433 0.19155198 -4.69863605 -0.00259498 0 0 Z M-11.59375 9.62890625 C-11.92375 9.95890625 -12.25375 10.28890625 -12.59375 10.62890625 C-12.8127031 14.83133385 -12.77953949 19.03951404 -12.77905273 23.24707031 C-12.78122673 25.35632883 -12.79934231 27.46505375 -12.81835938 29.57421875 C-12.82129581 30.92057113 -12.82327893 32.26692599 -12.82421875 33.61328125 C-12.82832764 34.83756836 -12.83243652 36.06185547 -12.83666992 37.32324219 C-12.52515349 41.56237036 -11.8502691 44.29804659 -8.90600586 47.41650391 C-5.71484977 49.08974656 -3.19182778 49.01758266 0.40234375 49.02734375 C1.4081826 49.03164902 1.4081826 49.03164902 2.43434143 49.03604126 C3.84889574 49.03807746 5.26347849 49.03257855 6.67797852 49.02001953 C8.8334919 49.00398257 10.98712341 49.0198679 13.14257812 49.0390625 C14.52083744 49.03707949 15.8990956 49.03323463 17.27734375 49.02734375 C18.52443115 49.02395996 19.77151855 49.02057617 21.05639648 49.01708984 C24.71917828 48.59264388 26.56417184 47.9600025 29.40625 45.62890625 C32.51614008 40.1829181 31.81518431 33.80149145 31.83178711 27.70898438 C31.8437194 25.63422714 31.89298054 23.56241496 31.94335938 21.48828125 C31.95044922 20.1734375 31.95753906 18.85859375 31.96484375 17.50390625 C31.97829834 16.30507813 31.99175293 15.10625 32.00561523 13.87109375 C31.2346952 9.70090308 29.66714252 8.25082591 26.40625 5.62890625 C21.33061835 3.93702903 15.9495317 4.32482967 10.63720703 4.27880859 C9.23664739 4.26224737 7.83617234 4.234954 6.43603516 4.19677734 C4.40743605 4.14182118 2.38080703 4.1201132 0.3515625 4.10546875 C-0.85999512 4.08564941 -2.07155273 4.06583008 -3.31982422 4.04541016 C-7.48630645 4.78798231 -8.91493021 6.44492706 -11.59375 9.62890625 Z " fill="#FDFAFA" transform="translate(38.59375,21.37109375)"/>
<path d="M0 0 C2.09847541 -0.00964705 4.19594665 -0.04062761 6.29418945 -0.07226562 C7.63728261 -0.0788016 8.98038276 -0.08404973 10.32348633 -0.08789062 C12.15206177 -0.10190918 12.15206177 -0.10190918 14.01757812 -0.11621094 C17.81993803 0.28017931 20.22100371 1.19255782 23.43676758 3.24023438 C23.93176758 4.72523437 23.93176758 4.72523437 24.43676758 6.24023438 C23.44676758 6.57023437 22.45676758 6.90023437 21.43676758 7.24023438 C20.94176758 6.25023437 20.94176758 6.25023437 20.43676758 5.24023438 C19.11676758 5.24023438 17.79676758 5.24023438 16.43676758 5.24023438 C16.77708008 6.63242187 16.77708008 6.63242187 17.12426758 8.05273438 C17.43676758 11.24023438 17.43676758 11.24023438 15.99926758 13.11523438 C15.48364258 13.48648438 14.96801758 13.85773437 14.43676758 14.24023438 C13.26114258 13.28117187 13.26114258 13.28117187 12.06176758 12.30273438 C8.41267256 9.43558829 6.22703579 8.89085208 1.53442383 8.95898438 C-1.92895186 9.4233476 -3.95798415 10.99850912 -6.56323242 13.24023438 C-9.26229421 16.77693602 -10.05263558 19.8491015 -10.56323242 24.24023438 C-11.32635742 24.19898437 -12.08948242 24.15773438 -12.87573242 24.11523438 C-15.79041659 24.01942613 -15.79041659 24.01942613 -18.56323242 26.24023438 C-18.70907306 23.01154692 -18.79747348 19.78371073 -18.87573242 16.55273438 C-18.91762695 15.64072266 -18.95952148 14.72871094 -19.00268555 13.7890625 C-19.12707749 6.94750585 -19.12707749 6.94750585 -16.10620117 3.15820312 C-15.26702148 2.52527344 -14.4278418 1.89234375 -13.56323242 1.24023438 C-10.96398686 -1.35901118 -3.72362582 0.01036861 0 0 Z " fill="#A7519E" transform="translate(44.563232421875,25.759765625)"/>
<path d="M0 0 C3.57153449 1.61569417 4.46733244 3.93333538 6.39453125 7.2421875 C8.16115271 10.03513191 9.49826711 11.07577275 12.625 12.1875 C15.9751716 12.40912674 19.27372544 12.36319789 22.625 12.1875 C22.295 15.1575 21.965 18.1275 21.625 21.1875 C18.22783223 21.32266583 14.83605392 21.42169231 11.4375 21.5 C10.47779297 21.54189453 9.51808594 21.58378906 8.52929688 21.62695312 C1.37687335 21.75069748 1.37687335 21.75069748 -2.48828125 18.85546875 C-5.04813305 15.2356369 -5.54756794 12.5236956 -5.625 8.1875 C-5.65078125 7.32125 -5.6765625 6.455 -5.703125 5.5625 C-5.375 3.1875 -5.375 3.1875 -4.0078125 1.38671875 C-2.375 0.1875 -2.375 0.1875 0 0 Z " fill="#FE7146" transform="translate(31.375,48.8125)"/>
<path d="M0 0 C3.9672797 0.26448531 5.67929288 0.7934343 8.75 3.25 C11.07826375 6.46522137 11.14711181 9.35830425 10.75 13.25 C9.47311154 16.05915461 8.43900183 17.75106764 5.9375 19.5625 C1.91047757 20.82813562 -1.1215909 20.73726757 -5 19.0625 C-8.51477037 16.2311572 -9.05156589 13.61069106 -9.6875 9.25 C-9.09881445 5.21329908 -7.28962376 3.84480077 -4.25 1.25 C-3.25 0.25 -3.25 0.25 0 0 Z " fill="#F55356" transform="translate(47.25,37.75)"/>
<path d="M0 0 C4.79642058 2.39821029 7.60178971 5.20357942 10 10 C10.8565765 14.37028828 10.36877185 17.26245631 8.375 21.25 C5.3809015 24.7168509 2.69192851 27.47238201 -1.953125 28.3828125 C-7.05027553 28.6746341 -10.0736905 27.39090366 -14 24 C-17.39090366 20.0736905 -18.6746341 17.05027553 -18.3828125 11.953125 C-17.47238201 7.30807149 -14.7168509 4.6190985 -11.25 1.625 C-7.26245631 -0.36877185 -4.37028828 -0.8565765 0 0 Z M-13 9 C-13.33 9.33 -13.66 9.66 -14 10 C-14.04466504 14.40397289 -13.79598865 17.97291787 -11.0625 21.5 C-7.53763967 24.06353478 -5.36505186 24.34235701 -1 24 C1.80915461 22.72311154 3.50106764 21.68900183 5.3125 19.1875 C6.58476509 15.13938379 6.50914951 12.12012891 4.75 8.25 C1.94607081 4.64494819 0.07144449 4.13636566 -4.4375 3.5625 C-8.90527332 4.11117392 -10.18207829 5.60191793 -13 9 Z " fill="#FDF5F6" transform="translate(52,34)"/>
<path d="M0 0 C3.59649489 0.51378498 5.58792925 1.38213036 8.5 3.5 C7.83203125 5.4609375 7.83203125 5.4609375 6.5 7.5 C4.07421875 8.0390625 4.07421875 8.0390625 1.1875 8.125 C-2.83945611 8.26783883 -5.81954191 8.82401726 -9.5 10.5 C-9.20554242 7.06466156 -8.48263518 5.47701716 -6.375 2.6875 C-3.5 0.5 -3.5 0.5 0 0 Z " fill="#D94E76" transform="translate(47.5,37.5)"/>
<path d="M0 0 C0.33 0.99 0.66 1.98 1 3 C1.99 2.67 2.98 2.34 4 2 C6.33299825 1.96045766 8.66708189 1.95598268 11 2 C11 4.64 11 7.28 11 10 C7.7 10.33 4.4 10.66 1 11 C-0.28317892 7.15046324 -0.06643637 4.05261865 0 0 Z " fill="#D3517D" transform="translate(11,40)"/>
<path d="M0 0 C-0.309375 0.53625 -0.61875 1.0725 -0.9375 1.625 C-2.17827439 4.3984957 -2.5909675 7.00042837 -3 10 C-3.763125 9.95875 -4.52625 9.9175 -5.3125 9.875 C-8.22718416 9.77919176 -8.22718416 9.77919176 -11 12 C-11 9.03 -11 6.06 -11 3 C-9.68 3 -8.36 3 -7 3 C-7 2.34 -7 1.68 -7 1 C-3.375 -1.125 -3.375 -1.125 0 0 Z " fill="#D74F6E" transform="translate(37,40)"/>
<path d="M0 0 C0.33 0.66 0.66 1.32 1 2 C2.918125 1.690625 2.918125 1.690625 4.875 1.375 C7.0546875 1.0234375 7.0546875 1.0234375 9 1 C9.66 1.66 10.32 2.32 11 3 C10.67 4.32 10.34 5.64 10 7 C7.03 7 4.06 7 1 7 C0.67 4.69 0.34 2.38 0 0 Z " fill="#B94C91" transform="translate(11,36)"/>
<path d="M0 0 C0.33 0.99 0.66 1.98 1 3 C4.3 2.34 7.6 1.68 11 1 C11 2.65 11 4.3 11 6 C7.7 6.33 4.4 6.66 1 7 C0.67 4.69 0.34 2.38 0 0 Z " fill="#E34361" transform="translate(11,44)"/>
<path d="M0 0 C1.65 0.33 3.3 0.66 5 1 C4.67 2.65 4.34 4.3 4 6 C2.35 5.67 0.7 5.34 -1 5 C-0.67 3.35 -0.34 1.7 0 0 Z " fill="#F6E4F0" transform="translate(61,30)"/>
<path d="M0 0 C0.66 0.33 1.32 0.66 2 1 C1.27683594 1.65355469 1.27683594 1.65355469 0.5390625 2.3203125 C-3.32436286 5.96297069 -5.82400746 8.64270063 -7 14 C-7.33 14 -7.66 14 -8 14 C-7.63074596 7.84576594 -6.17122773 5.27296499 -2 1 C-1.34 0.67 -0.68 0.34 0 0 Z " fill="#7655BA" transform="translate(20,13)"/>
<path d="M0 0 C-0.5775 0.268125 -1.155 0.53625 -1.75 0.8125 C-4.05396098 1.94184834 -4.05396098 1.94184834 -6.0625 3.625 C-8 5 -8 5 -11 5 C-9.07089686 -0.78730941 -5.38986894 -0.20339128 0 0 Z " fill="#CF638E" transform="translate(51,38)"/>
<path d="M0 0 C-0.33 0.99 -0.66 1.98 -1 3 C-1.78375 3.144375 -2.5675 3.28875 -3.375 3.4375 C-5.96421018 3.87798925 -5.96421018 3.87798925 -8 5 C-8 3.68 -8 2.36 -8 1 C-5.07175348 0.02391783 -3.04386724 -0.08226668 0 0 Z " fill="#EC4F5A" transform="translate(34,47)"/>
<path d="M0 0 C0.99 0.33 1.98 0.66 3 1 C2.25 2.9375 2.25 2.9375 1 5 C-1.125 5.75 -1.125 5.75 -3 6 C-2.625 3.5625 -2.625 3.5625 -2 1 C-1.34 0.67 -0.68 0.34 0 0 Z " fill="#DF5972" transform="translate(41,42)"/>
<path d="M0 0 C-0.99 1.32 -1.98 2.64 -3 4 C-4.32 3.67 -5.64 3.34 -7 3 C-7 2.34 -7 1.68 -7 1 C-3.375 -1.125 -3.375 -1.125 0 0 Z " fill="#C75582" transform="translate(37,40)"/>
<path d="M0 0 C1.32 0 2.64 0 4 0 C4.33 0.99 4.66 1.98 5 3 C1.7 3 -1.6 3 -5 3 C-3.68 2.34 -2.36 1.68 -1 1 C-0.67 0.67 -0.34 0.34 0 0 Z " fill="#FF9B55" transform="translate(37,67)"/>
<path d="M0 0 C0 1.32 0 2.64 0 4 C-1.98 4 -3.96 4 -6 4 C-2.25 0 -2.25 0 0 0 Z " fill="#FFD153" transform="translate(40,80)"/>
</svg>
