<?xml version="1.0" encoding="UTF-8"?>
<svg version="1.1" xmlns="http://www.w3.org/2000/svg" width="100" height="100">
<path d="M0 0 C1.30500458 -0.00960754 2.61000916 -0.01921509 3.95455933 -0.02911377 C5.38132553 -0.03396164 6.80809377 -0.0382405 8.23486328 -0.04199219 C9.69833376 -0.04774584 11.16180421 -0.05350355 12.62527466 -0.05926514 C15.69354605 -0.06976685 18.7617913 -0.07561499 21.83007812 -0.07910156 C25.75652433 -0.08458571 29.68262366 -0.10861519 33.60896111 -0.13707352 C36.63218182 -0.15572141 39.65531932 -0.16090662 42.67859268 -0.16243744 C44.12584454 -0.16545947 45.5730951 -0.17347287 47.02029037 -0.18662262 C49.04731099 -0.20372673 51.07447503 -0.19995175 53.1015625 -0.1953125 C54.25389374 -0.19895813 55.40622498 -0.20260376 56.59347534 -0.20635986 C61.55171003 0.38395169 63.81744378 2.11221993 66.96032715 5.93334961 C68.89092465 9.55666278 69.18637726 11.72648863 69.19775391 15.80566406 C69.21036255 17.10721436 69.22297119 18.40876465 69.23596191 19.74975586 C69.22880165 21.15772039 69.22059756 22.56567995 69.21142578 23.97363281 C69.21412343 25.43042255 69.21800811 26.88721053 69.22302246 28.34399414 C69.22890483 31.3903119 69.22039608 34.43615903 69.20166016 37.48242188 C69.17887049 41.37640344 69.19200048 45.26928211 69.21595001 49.16322327 C69.2304427 52.16939521 69.22578631 55.17530805 69.21543884 58.18148804 C69.2127811 59.61673108 69.21600769 61.05199808 69.22535706 62.48721313 C69.23557793 64.49700435 69.2172229 66.50687866 69.19775391 68.51660156 C69.19457153 69.65766357 69.19138916 70.79872559 69.18811035 71.97436523 C68.4013745 76.91032443 66.23000353 79.93695743 62.33836365 83.01087952 C59.10457178 84.41020866 56.67114237 84.54854123 53.14916992 84.56518555 C51.8475441 84.57786972 50.54591827 84.59055389 49.20484924 84.60362244 C47.79167522 84.6015708 46.37850229 84.59858261 44.96533203 84.59472656 C43.50711321 84.59929093 42.04889655 84.60459726 40.59068298 84.61061096 C37.538475 84.61953235 34.48652881 84.61713039 31.43432617 84.60717773 C27.53250848 84.59569134 23.63159627 84.61589824 19.7298975 84.64509487 C16.71946012 84.66348566 13.70923857 84.66315874 10.69875908 84.65745735 C9.26071338 84.65730447 7.82265273 84.66332104 6.38466072 84.67574883 C4.37001681 84.69070782 2.35522355 84.67732649 0.34057617 84.6628418 C-0.80350204 84.66267563 -1.94758026 84.66250946 -3.12632751 84.66233826 C-7.87574959 83.91693708 -10.80815155 81.66516567 -14.16758728 78.32270813 C-15.76350911 75.3287881 -15.72274981 72.96155815 -15.75561523 69.57592773 C-15.76569107 68.92334488 -15.77576691 68.27076202 -15.78614807 67.59840393 C-15.81458986 65.44596102 -15.82050286 63.29422057 -15.82373047 61.14160156 C-15.83337584 59.63950821 -15.84346864 58.13741768 -15.85398865 56.6353302 C-15.87194161 53.48720777 -15.87751073 50.33933211 -15.87573242 47.19116211 C-15.87542796 43.16915133 -15.91634428 39.14873443 -15.96804905 35.12710094 C-16.00151363 32.02395963 -16.00748692 28.92119913 -16.00590324 25.81789589 C-16.00942948 24.33597645 -16.02262146 22.8540457 -16.04590034 21.37230492 C-16.23118495 8.3581915 -16.23118495 8.3581915 -12.46411133 3.76000977 C-8.68937815 0.10871697 -5.08609597 0.03017873 0 0 Z M-8.31982422 7.16113281 C-12.30778497 13.19652503 -11.75486946 19.81460338 -11.71826172 26.84863281 C-11.7211319 28.06510498 -11.72400208 29.28157715 -11.72695923 30.53491211 C-11.72899555 33.10010241 -11.72349603 35.66530839 -11.7109375 38.23046875 C-11.69487881 42.1478155 -11.71080205 46.0641305 -11.72998047 49.98144531 C-11.72799796 52.47884341 -11.72415413 54.97624088 -11.71826172 57.47363281 C-11.72433441 58.64047607 -11.7304071 59.80731934 -11.73666382 61.00952148 C-11.69889442 69.54284216 -11.69889442 69.54284216 -8.31982422 77.16113281 C-2.284432 81.14909356 4.33364635 80.59617806 11.36767578 80.55957031 C13.19238403 80.56387558 13.19238403 80.56387558 15.05395508 80.56826782 C17.61914538 80.57030414 20.18435135 80.56480462 22.74951172 80.55224609 C26.66685847 80.53618741 30.58317346 80.55211064 34.50048828 80.57128906 C36.99788638 80.56930656 39.49528384 80.56546273 41.99267578 80.55957031 C43.74294067 80.56867935 43.74294067 80.56867935 45.52856445 80.57797241 C54.06188513 80.54020302 54.06188513 80.54020302 61.68017578 77.16113281 C65.66813653 71.12574059 65.11522103 64.50766225 65.07861328 57.47363281 C65.08148346 56.25716064 65.08435364 55.04068848 65.08731079 53.78735352 C65.08934711 51.22216322 65.08384759 48.65695724 65.07128906 46.09179688 C65.05523037 42.17445012 65.07115361 38.25813513 65.09033203 34.34082031 C65.08834952 31.84342221 65.0845057 29.34602475 65.07861328 26.84863281 C65.08468597 25.68178955 65.09075867 24.51494629 65.09701538 23.31274414 C65.05924599 14.77942346 65.05924599 14.77942346 61.68017578 7.16113281 C55.64478356 3.17317206 49.02670521 3.72608757 41.99267578 3.76269531 C40.16796753 3.75839005 40.16796753 3.75839005 38.30639648 3.7539978 C35.74120619 3.75196148 33.17600021 3.757461 30.61083984 3.77001953 C26.69349309 3.78607822 22.7771781 3.77015498 18.85986328 3.75097656 C16.36246518 3.75295907 13.86506772 3.7568029 11.36767578 3.76269531 C9.61741089 3.75358627 9.61741089 3.75358627 7.83178711 3.74429321 C-0.70153357 3.78206261 -0.70153357 3.78206261 -8.31982422 7.16113281 Z " fill="#000000" transform="translate(23.31982421875,7.8388671875)"/>
<path d="M0 0 C11.5473001 -1.68788841 11.5473001 -1.68788841 17 0 C21.63368829 3.56359629 24.35145705 8.89813841 27 14 C30.94444493 10.15126084 34.41594803 6.1027184 37.83984375 1.79296875 C40 0 40 0 43.25390625 -0.26171875 C44.16011719 -0.17535156 45.06632812 -0.08898437 46 0 C44.44904419 3.62169141 42.23134948 6.12518019 39.5625 9 C35.45477719 13.25008411 35.45477719 13.25008411 32 18 C32.45913763 21.35445247 33.89606523 23.61658595 35.80078125 26.37109375 C36.64866211 27.60375977 36.64866211 27.60375977 37.51367188 28.86132812 C38.10728516 29.71146484 38.70089844 30.56160156 39.3125 31.4375 C39.89451172 32.28376953 40.47652344 33.13003906 41.07617188 34.00195312 C43.43655301 37.41555076 45.79796094 40.75161272 48.41796875 43.97265625 C50 46 50 46 50 48 C44.35041862 48.8941307 38.5474176 49.77779641 33 48 C28.00416457 44.18323351 24.85833385 38.49442145 22 33 C22 32.34 22 31.68 22 31 C19.31452655 33.61748678 16.74245533 36.25290113 14.31640625 39.11328125 C13.86330078 39.63857422 13.41019531 40.16386719 12.94335938 40.70507812 C12.01473483 41.78606539 11.09816688 42.87751591 10.19335938 43.97851562 C7.69136474 46.83540311 6.49663112 47.94726554 2.65234375 48.35546875 C1.77707031 48.23816406 0.90179687 48.12085938 0 48 C1.53613553 44.43485124 3.6838452 41.96129644 6.3125 39.125 C7.50939453 37.80822266 7.50939453 37.80822266 8.73046875 36.46484375 C10.05329315 35.02817904 11.38500401 33.5994228 12.73828125 32.19140625 C14.30014817 30.56560011 14.30014817 30.56560011 16 28 C15.68112446 23.96838341 14.21928439 21.47411994 11.875 18.2421875 C10.93914063 16.93314453 10.93914063 16.93314453 9.984375 15.59765625 C9.00210938 14.24994141 9.00210938 14.24994141 8 12.875 C6.70510916 11.0830546 5.41329539 9.28888046 4.125 7.4921875 C3.55007812 6.70183105 2.97515625 5.91147461 2.3828125 5.09716797 C1 3 1 3 0 0 Z M9 4 C11.88063728 9.23690323 15.0735131 14.08875516 18.5625 18.9375 C21.81027357 23.46227905 25.02258696 27.9909679 28.0546875 32.6640625 C28.53993896 33.40277588 29.02519043 34.14148926 29.52514648 34.90258789 C30.45014074 36.31718152 31.36171493 37.74066352 32.25805664 39.17358398 C33.62813361 41.33566903 33.62813361 41.33566903 36 44 C38.71728747 44.58255149 38.71728747 44.58255149 41 44 C38.11936272 38.76309677 34.9264869 33.91124484 31.4375 29.0625 C28.18972643 24.53772095 24.97741304 20.0090321 21.9453125 15.3359375 C21.46006104 14.59722412 20.97480957 13.85851074 20.47485352 13.09741211 C19.54985926 11.68281848 18.63828507 10.25933648 17.74194336 8.82641602 C16.37186639 6.66433097 16.37186639 6.66433097 14 4 C11.28271253 3.41744851 11.28271253 3.41744851 9 4 Z " fill="#000000" transform="translate(26,26)"/>
</svg>
