<?xml version="1.0" standalone="no"?>
<!DOCTYPE svg PUBLIC "-//W3C//DTD SVG 20010904//EN"
 "http://www.w3.org/TR/2001/REC-SVG-20010904/DTD/svg10.dtd">
<svg version="1.0" xmlns="http://www.w3.org/2000/svg"
 width="1472.000000pt" height="832.000000pt" viewBox="0 0 1472.000000 832.000000"
 preserveAspectRatio="xMidYMid meet">

<g transform="translate(0.000000,832.000000) scale(0.100000,-0.100000)"
fill="#000000" stroke="none">
<path d="M6463 5773 c-25 -21 -93 -142 -93 -166 0 -24 39 -50 184 -123 188
-96 521 -283 604 -339 20 -14 44 -25 54 -25 32 0 118 143 118 195 0 37 -40 70
-199 165 -167 99 -564 299 -612 306 -25 4 -40 1 -56 -13z"/>
<path d="M6273 5477 c-14 -31 -9 -36 62 -62 73 -26 412 -199 538 -275 60 -36
143 -91 185 -122 75 -57 77 -57 96 -39 10 11 16 26 13 35 -10 25 -119 105
-250 184 -159 95 -552 291 -597 298 -31 5 -37 3 -47 -19z"/>
<path d="M6211 5265 c-23 -48 -82 -154 -131 -235 -50 -81 -90 -150 -90 -152 0
-3 64 -37 143 -75 157 -78 426 -230 557 -315 47 -31 88 -54 91 -52 4 2 10 21
14 41 23 126 108 288 214 407 l34 40 -47 42 c-99 87 -617 366 -708 380 l-36 6
-41 -87z"/>
<path d="M7034 4801 c-52 -54 -113 -149 -120 -187 -9 -48 -2 -68 30 -79 23 -8
30 -6 41 8 24 33 30 30 380 -158 198 -107 438 -234 690 -365 72 -37 195 -96
274 -131 79 -35 146 -71 149 -79 3 -8 14 -27 24 -42 46 -66 146 -9 204 117 55
116 10 219 -81 187 -29 -11 -40 -10 -88 12 -30 13 -106 54 -168 91 -178 106
-963 475 -1201 564 -22 8 -28 17 -28 40 0 29 -29 61 -56 61 -6 0 -29 -18 -50
-39z"/>
<path d="M5865 4800 c-4 -12 -5 -24 -2 -26 2 -3 101 -53 218 -112 233 -117
491 -267 600 -349 70 -53 93 -58 105 -21 9 28 -11 46 -160 144 -159 106 -287
178 -511 290 -190 95 -239 109 -250 74z"/>
<path d="M5784 4658 c-86 -132 -92 -158 -46 -200 15 -14 83 -56 152 -93 69
-37 179 -97 245 -133 66 -36 186 -103 266 -149 81 -45 154 -83 163 -83 44 0
137 163 118 206 -12 25 -182 142 -336 232 -150 86 -469 242 -509 248 -28 5
-35 1 -53 -28z"/>
<path d="M5730 3265 l0 -357 198 4 c179 3 201 5 237 25 135 73 156 222 44 316
l-38 32 30 31 c51 53 58 143 17 212 -11 18 -41 45 -66 60 -46 26 -51 27 -234
30 l-188 4 0 -357z m365 214 c14 -13 27 -38 31 -56 5 -27 1 -37 -24 -63 l-31
-31 -108 3 -108 3 -3 74 c-4 109 -9 104 114 99 95 -4 108 -7 129 -29z m15
-287 c61 -45 64 -104 7 -146 -24 -18 -42 -21 -145 -21 l-117 0 -3 92 -3 92 38
4 c78 10 197 -2 223 -21z"/>
<path d="M6442 3268 l3 -353 60 0 60 0 3 353 2 352 -65 0 -65 0 2 -352z"/>
<path d="M6772 3268 l3 -353 139 -3 c77 -1 164 2 193 8 116 25 213 94 265 192
20 37 23 57 23 153 0 97 -3 116 -25 160 -44 91 -135 160 -242 185 -24 5 -114
10 -201 10 l-157 0 2 -352z m319 232 c113 -22 178 -95 187 -209 5 -81 -8 -129
-51 -177 -51 -59 -97 -76 -219 -82 l-108 -5 0 235 c0 129 3 238 7 241 10 10
123 8 184 -3z"/>
<path d="M7580 3265 l0 -355 250 0 249 0 7 35 c3 19 3 46 0 60 l-6 25 -190 0
-190 0 0 295 0 295 -60 0 -60 0 0 -355z"/>
<path d="M8162 3588 c14 -18 74 -105 134 -193 l109 -160 5 -160 5 -160 60 0
60 0 5 155 c3 85 9 162 14 170 6 8 65 95 133 192 68 98 123 180 123 183 0 3
-33 5 -73 5 -69 0 -74 -2 -89 -27 -9 -16 -51 -79 -93 -142 l-77 -113 -92 141
-91 141 -79 0 -78 0 24 -32z"/>
<path d="M6184 2742 c-9 -6 -74 -144 -74 -158 0 -11 31 -2 36 11 8 21 80 20
92 -1 5 -9 16 -14 25 -13 14 3 11 14 -15 74 -34 79 -48 98 -64 87z m36 -89 c0
-7 -11 -13 -25 -13 -27 0 -31 10 -14 42 11 21 12 21 25 3 8 -10 14 -25 14 -32z"/>
<path d="M7030 2737 c-14 -7 -26 -21 -28 -30 -5 -23 22 -53 54 -61 13 -4 24
-14 24 -22 0 -14 -7 -15 -40 -10 -43 7 -54 -6 -21 -24 26 -14 74 -13 89 2 7 7
12 23 12 35 0 19 -10 28 -45 43 -65 28 -57 53 13 42 41 -6 42 13 1 27 -18 6
-32 11 -33 11 -1 0 -12 -6 -26 -13z"/>
<path d="M7745 2734 c-38 -19 -45 -31 -45 -75 0 -47 30 -79 75 -79 47 0 65 9
65 33 0 16 -3 18 -12 9 -7 -7 -26 -12 -43 -12 -38 0 -55 16 -55 51 0 49 45 73
91 49 15 -9 19 -7 19 5 0 8 -12 20 -26 25 -33 13 -34 13 -69 -6z"/>
<path d="M8234 2736 c-35 -15 -44 -32 -44 -82 0 -95 136 -102 164 -8 10 32
-12 71 -49 89 -39 18 -32 18 -71 1z m76 -36 c24 -24 25 -38 4 -68 -16 -23 -57
-29 -83 -13 -21 14 -18 69 5 86 26 20 51 18 74 -5z"/>
<path d="M5939 2721 c-18 -14 -24 -29 -24 -61 0 -32 6 -47 24 -61 26 -21 62
-24 92 -9 32 18 22 31 -20 24 -35 -6 -41 -3 -56 20 -15 22 -16 32 -7 52 15 31
37 40 68 25 31 -14 50 -5 33 15 -17 20 -82 17 -110 -5z"/>
<path d="M6347 2733 c-4 -3 -7 -39 -7 -80 0 -58 3 -73 15 -73 11 0 15 12 15
52 0 59 11 56 33 -7 8 -22 20 -40 28 -40 7 0 24 20 36 45 l22 45 0 -47 c1 -36
5 -48 16 -48 12 0 15 16 15 80 0 71 -2 80 -18 80 -13 0 -25 -17 -41 -56 -13
-30 -27 -52 -31 -47 -4 4 -15 29 -25 56 -17 44 -39 60 -58 40z"/>
<path d="M6600 2660 c0 -64 3 -80 15 -80 9 0 15 9 15 24 0 20 6 25 40 31 47 8
65 32 51 68 -11 29 -29 37 -82 37 l-39 0 0 -80z m88 28 c-2 -17 -11 -24 -30
-26 -24 -3 -28 0 -28 22 0 22 4 26 31 26 26 0 30 -3 27 -22z"/>
<path d="M6790 2680 c0 -47 4 -64 20 -80 26 -26 81 -26 103 -2 23 25 24 142 2
142 -10 0 -15 -16 -17 -62 -3 -61 -4 -63 -32 -66 -37 -5 -46 10 -46 76 0 39
-4 52 -15 52 -12 0 -15 -13 -15 -60z"/>
<path d="M7322 2713 c-5 -15 -19 -52 -31 -80 -21 -52 -21 -53 -1 -53 11 0 20
7 20 15 0 11 11 15 40 15 27 0 43 -5 46 -15 4 -8 14 -15 25 -15 16 0 15 7 -15
78 -37 87 -66 106 -84 55z m48 -39 c14 -35 14 -34 -19 -34 -28 0 -29 1 -18 30
14 37 24 38 37 4z"/>
<path d="M7494 2678 c7 -72 26 -98 71 -98 52 0 66 18 72 93 5 58 3 67 -11 67
-12 0 -16 -10 -16 -42 0 -80 -15 -103 -59 -91 -18 4 -21 13 -21 53 0 59 -7 80
-27 80 -13 0 -15 -10 -9 -62z"/>
<path d="M7890 2731 c0 -5 11 -12 25 -15 23 -6 25 -10 25 -71 0 -51 3 -65 15
-65 12 0 15 14 15 65 0 61 2 65 25 71 46 12 26 24 -40 24 -36 0 -65 -4 -65 -9z"/>
<path d="M8088 2663 c2 -43 6 -80 9 -83 8 -8 20 21 18 43 -1 12 -3 43 -4 70
-1 31 -5 47 -14 47 -9 0 -11 -20 -9 -77z"/>
<path d="M8420 2660 c0 -64 3 -80 15 -80 12 0 15 13 15 57 l0 57 42 -57 c24
-33 49 -57 60 -57 16 0 18 10 18 80 0 63 -3 80 -14 80 -11 0 -16 -15 -18 -52
l-3 -53 -38 53 c-24 31 -46 52 -58 52 -17 0 -19 -8 -19 -80z"/>
</g>
</svg>
